<svg xmlns="http://www.w3.org/2000/svg" xmlns:xlink="http://www.w3.org/1999/xlink" fill="none" version="1.1" width="34" height="34" viewBox="0 0 34 34"><clipPath id="master_svg0_6_15985"><rect x="0" y="0" width="34" height="34" rx="0"/></clipPath><g clip-path="url(#master_svg0_6_15985)" style="mix-blend-mode:passthrough"><g><g style="mix-blend-mode:passthrough"><path d="M5.6666717529296875,5.666662061767578C5.290941752929688,5.666662061767578,4.930611752929687,5.815922061767578,4.664931752929688,6.081592061767578C4.399261752929688,6.347272061767578,4.250001752929688,6.707602061767578,4.250001752929688,7.083332061767578C4.250001752929688,7.083332061767578,4.250001752929688,26.91663206176758,4.250001752929688,26.91663206176758C4.250001752929688,27.292332061767578,4.399261752929688,27.65273206176758,4.664931752929688,27.91843206176758C4.930611752929687,28.184032061767578,5.290941752929688,28.333332061767578,5.6666717529296875,28.333332061767578C5.6666717529296875,28.333332061767578,28.333371752929686,28.333332061767578,28.333371752929686,28.333332061767578C28.709071752929688,28.333332061767578,29.069471752929687,28.184032061767578,29.335071752929686,27.91843206176758C29.60067175292969,27.65273206176758,29.74997175292969,27.292332061767578,29.74997175292969,26.91663206176758C29.74997175292969,26.91663206176758,29.74997175292969,11.333332061767578,29.74997175292969,11.333332061767578C29.74997175292969,10.957602061767577,29.60067175292969,10.597272061767578,29.335071752929686,10.331592061767578C29.069471752929687,10.065922061767578,28.709071752929688,9.916662061767578,28.333371752929686,9.916662061767578C28.333371752929686,9.916662061767578,15.583371752929688,9.916662061767578,15.583371752929688,9.916662061767578C15.109671752929687,9.916662061767578,14.667371752929688,9.679942061767578,14.404571752929687,9.285822061767579C14.404571752929687,9.285822061767579,11.991871752929688,5.666662061767578,11.991871752929688,5.666662061767578C11.991871752929688,5.666662061767578,5.6666717529296875,5.666662061767578,5.6666717529296875,5.666662061767578C5.6666717529296875,5.666662061767578,5.6666717529296875,5.666662061767578,5.6666717529296875,5.666662061767578ZM2.661471752929687,4.078132061767578C3.4585017529296875,3.2810980617675782,4.539501752929688,2.833332061767578,5.6666717529296875,2.833332061767578C5.6666717529296875,2.833332061767578,12.749971752929687,2.833332061767578,12.749971752929687,2.833332061767578C13.223671752929688,2.833332061767578,13.665971752929687,3.070058061767578,13.928771752929688,3.464174061767578C13.928771752929688,3.464174061767578,16.34157175292969,7.083332061767578,16.34157175292969,7.083332061767578C16.34157175292969,7.083332061767578,28.333371752929686,7.083332061767578,28.333371752929686,7.083332061767578C29.460571752929688,7.083332061767578,30.541471752929688,7.531092061767578,31.33847175292969,8.328132061767578C32.13557175292969,9.125162061767579,32.583371752929686,10.206162061767579,32.583371752929686,11.333332061767578C32.583371752929686,11.333332061767578,32.583371752929686,26.91663206176758,32.583371752929686,26.91663206176758C32.583371752929686,28.043932061767578,32.13557175292969,29.124832061767577,31.33847175292969,29.921832061767578C30.541471752929688,30.71883206176758,29.460571752929688,31.16663206176758,28.333371752929686,31.16663206176758C28.333371752929686,31.16663206176758,5.6666717529296875,31.16663206176758,5.6666717529296875,31.16663206176758C4.539501752929688,31.16663206176758,3.4585017529296875,30.71883206176758,2.661471752929687,29.921832061767578C1.8644377529296876,29.124832061767577,1.4166717529296875,28.043932061767578,1.4166717529296875,26.91663206176758C1.4166717529296875,26.91663206176758,1.4166717529296875,7.083332061767578,1.4166717529296875,7.083332061767578C1.4166717529296875,5.956162061767579,1.8644377529296876,4.875162061767578,2.661471752929687,4.078132061767578C2.661471752929687,4.078132061767578,2.661471752929687,4.078132061767578,2.661471752929687,4.078132061767578ZM11.333331752929688,19.833332061767578C11.333331752929688,19.05093206176758,11.967571752929688,18.41663206176758,12.749971752929687,18.41663206176758C12.749971752929687,18.41663206176758,21.24997175292969,18.41663206176758,21.24997175292969,18.41663206176758C22.032471752929688,18.41663206176758,22.666671752929688,19.05093206176758,22.666671752929688,19.833332061767578C22.666671752929688,20.615732061767577,22.032471752929688,21.250032061767577,21.24997175292969,21.250032061767577C21.24997175292969,21.250032061767577,12.749971752929687,21.250032061767577,12.749971752929687,21.250032061767577C11.967571752929688,21.250032061767577,11.333331752929688,20.615732061767577,11.333331752929688,19.833332061767578C11.333331752929688,19.833332061767578,11.333331752929688,19.833332061767578,11.333331752929688,19.833332061767578Z" fill-rule="evenodd" fill="#000000" fill-opacity="1"/></g></g></g></svg>